<svg width="217" height="47" viewBox="0 0 217 47" fill="none" xmlns="http://www.w3.org/2000/svg">
<path d="M1.408 24V8.49H15.73V24H11.682V11.79H5.456V24H1.408ZM18.5525 24V8.49H26.0105C27.7705 8.49 29.1272 8.94467 30.0805 9.854C31.0485 10.7487 31.5325 11.988 31.5325 13.572C31.5325 15.156 31.0485 16.4027 30.0805 17.312C29.1272 18.2067 27.7705 18.654 26.0105 18.654H22.6005V24H18.5525ZM22.6005 15.552H25.3065C26.8905 15.552 27.6825 14.892 27.6825 13.572C27.6825 12.252 26.8905 11.592 25.3065 11.592H22.6005V15.552ZM29.8954 24L37.1554 8.49H40.3454L47.6054 24H43.5574L42.2154 20.854H35.2854L33.9434 24H29.8954ZM38.7174 12.714L36.6054 17.752H40.8734L38.7614 12.714H38.7174ZM48.5447 24V8.49H56.0247C57.6967 8.49 58.9874 8.85667 59.8967 9.59C60.8207 10.3087 61.2827 11.2767 61.2827 12.494C61.2827 13.3007 61.0774 14.0047 60.6667 14.606C60.2707 15.2073 59.7134 15.6547 58.9947 15.948C59.8601 16.212 60.5274 16.6593 60.9967 17.29C61.4661 17.906 61.7007 18.676 61.7007 19.6C61.7007 20.964 61.2094 22.042 60.2267 22.834C59.2587 23.6113 57.9314 24 56.2447 24H48.5447ZM52.4167 14.65H55.2987C56.0321 14.65 56.5674 14.518 56.9047 14.254C57.2567 13.99 57.4327 13.5867 57.4327 13.044C57.4327 12.5013 57.2567 12.1053 56.9047 11.856C56.5674 11.592 56.0321 11.46 55.2987 11.46H52.4167V14.65ZM52.4167 21.03H55.6947C56.4427 21.03 56.9854 20.8907 57.3227 20.612C57.6747 20.3187 57.8507 19.886 57.8507 19.314C57.8507 18.742 57.6747 18.3167 57.3227 18.038C56.9854 17.7593 56.4427 17.62 55.6947 17.62H52.4167V21.03ZM71.472 24.242C69.9027 24.242 68.524 23.912 67.336 23.252C66.1627 22.5773 65.246 21.6387 64.586 20.436C63.926 19.2333 63.596 17.8327 63.596 16.234C63.596 14.6207 63.9187 13.22 64.564 12.032C65.224 10.8293 66.148 9.898 67.336 9.238C68.524 8.578 69.9027 8.248 71.472 8.248C73.0413 8.248 74.4127 8.578 75.586 9.238C76.774 9.898 77.698 10.8293 78.358 12.032C79.018 13.22 79.348 14.6207 79.348 16.234C79.348 17.8327 79.018 19.2333 78.358 20.436C77.698 21.6387 76.774 22.5773 75.586 23.252C74.4127 23.912 73.0413 24.242 71.472 24.242ZM71.472 20.854C72.616 20.854 73.5107 20.4507 74.156 19.644C74.816 18.8227 75.146 17.686 75.146 16.234C75.146 14.782 74.8233 13.6527 74.178 12.846C73.5327 12.0393 72.6307 11.636 71.472 11.636C70.3133 11.636 69.4113 12.0393 68.766 12.846C68.1207 13.6527 67.798 14.782 67.798 16.234C67.798 17.686 68.1207 18.8227 68.766 19.644C69.4113 20.4507 70.3133 20.854 71.472 20.854ZM86.7981 24.242C85.5221 24.242 84.3927 24.0953 83.4101 23.802C82.4274 23.5087 81.5401 23.0907 80.7481 22.548L81.8701 19.578C82.4421 20.0033 83.1167 20.3333 83.8941 20.568C84.6714 20.8027 85.5147 20.92 86.4241 20.92C87.4214 20.92 88.1547 20.7807 88.6241 20.502C89.0934 20.2087 89.3281 19.7613 89.3281 19.16C89.3281 18.6613 89.1521 18.2947 88.8001 18.06C88.4627 17.8107 87.9201 17.686 87.1721 17.686H83.4321V14.584H86.7541C87.5021 14.584 88.0447 14.4667 88.3821 14.232C88.7194 13.9973 88.8881 13.6307 88.8881 13.132C88.8881 12.6773 88.6974 12.3033 88.3161 12.01C87.9494 11.7167 87.3407 11.57 86.4901 11.57C85.6981 11.57 84.9207 11.6873 84.1581 11.922C83.3954 12.142 82.7354 12.4647 82.1781 12.89L81.0341 9.92C81.7381 9.40667 82.6034 9.00333 83.6301 8.71C84.6567 8.402 85.7787 8.248 86.9961 8.248C88.9614 8.248 90.4281 8.65133 91.3961 9.458C92.3641 10.2647 92.8481 11.2767 92.8481 12.494C92.8481 13.3007 92.6427 14.0047 92.2321 14.606C91.8361 15.2073 91.2787 15.6547 90.5601 15.948C91.4254 16.212 92.0854 16.6593 92.5401 17.29C93.0094 17.906 93.2441 18.676 93.2441 19.6C93.2441 20.964 92.7161 22.0787 91.6601 22.944C90.6041 23.8093 88.9834 24.242 86.7981 24.242ZM93.4677 24L100.728 8.49H103.918L111.178 24H107.13L105.788 20.854H98.8577L97.5157 24H93.4677ZM102.29 12.714L100.178 17.752H104.446L102.334 12.714H102.29ZM131.961 27.85V24H112.117V8.49H116.099V20.7H120.719V8.49H124.679V20.7H129.299V8.49H133.281V20.7H135.481V27.85H131.961ZM137.383 24V8.49H141.145V17.466L148.251 8.49H151.221V24H147.481V15.002L140.353 24H137.383ZM157.706 24V11.79H152.778V8.49H166.682V11.79H161.754V24H157.706ZM168.213 24V8.49H172.261V14.474H178.663V8.49H182.689V24H178.663V17.796H172.261V24H168.213ZM185.508 24V8.49H189.27V17.466L196.376 8.49H199.346V24H195.606V15.002L188.478 24H185.508ZM202.179 24V8.49H206.227V14.694H207.767L211.463 8.49H215.841L211.397 15.508C212.395 16.0653 213.216 17.004 213.861 18.324L216.611 24H212.255L210.275 19.644C209.997 19.0427 209.652 18.6173 209.241 18.368C208.831 18.1187 208.303 17.994 207.657 17.994H206.227V24H202.179Z" fill="#4F8FF0"/>
<path d="M9.008 40.176C7.888 40.176 6.95467 39.904 6.208 39.36C5.472 38.8053 5.00267 38.048 4.8 37.088H3.744V40H0.96V32.128H3.744V34.896H4.816C5.04 33.968 5.52 33.248 6.256 32.736C6.992 32.2133 7.90933 31.952 9.008 31.952C9.88267 31.952 10.6453 32.1173 11.296 32.448C11.9467 32.7787 12.4533 33.2533 12.816 33.872C13.1787 34.48 13.36 35.2107 13.36 36.064C13.36 36.9067 13.1787 37.6373 12.816 38.256C12.4533 38.8747 11.9467 39.3493 11.296 39.68C10.6453 40.0107 9.88267 40.176 9.008 40.176ZM9.008 38.08C9.44533 38.08 9.80267 37.92 10.08 37.6C10.3573 37.28 10.496 36.768 10.496 36.064C10.496 35.3493 10.3573 34.8373 10.08 34.528C9.80267 34.208 9.44533 34.048 9.008 34.048C8.57067 34.048 8.21333 34.208 7.936 34.528C7.65867 34.8373 7.52 35.3493 7.52 36.064C7.52 36.768 7.65867 37.28 7.936 37.6C8.21333 37.92 8.57067 38.08 9.008 38.08ZM14.9448 42.88V32.128H17.7128V33.2C17.9261 32.816 18.2514 32.512 18.6888 32.288C19.1261 32.064 19.6061 31.952 20.1288 31.952C20.8008 31.952 21.3928 32.1173 21.9048 32.448C22.4274 32.7787 22.8328 33.2533 23.1208 33.872C23.4194 34.48 23.5688 35.2107 23.5688 36.064C23.5688 36.9067 23.4248 37.6373 23.1368 38.256C22.8488 38.8747 22.4434 39.3493 21.9208 39.68C21.4088 40.0107 20.8114 40.176 20.1288 40.176C19.6381 40.176 19.1794 40.0747 18.7528 39.872C18.3368 39.6693 18.0168 39.3973 17.7928 39.056V42.88H14.9448ZM19.2328 38.08C19.6594 38.08 20.0114 37.92 20.2888 37.6C20.5661 37.28 20.7048 36.768 20.7048 36.064C20.7048 35.3493 20.5661 34.8373 20.2888 34.528C20.0114 34.208 19.6594 34.048 19.2328 34.048C18.7954 34.048 18.4381 34.208 18.1608 34.528C17.8834 34.8373 17.7448 35.3493 17.7448 36.064C17.7448 36.768 17.8834 37.28 18.1608 37.6C18.4381 37.92 18.7954 38.08 19.2328 38.08ZM25.1319 40V32.128H27.6919V36.384L30.9239 32.128H33.2599V40H30.6999V35.728L27.4679 40H25.1319ZM34.6188 42.08V37.856H35.6108C35.8454 37.4293 36.0108 36.944 36.1068 36.4C36.2134 35.856 36.2668 35.1413 36.2668 34.256V32.128H43.0668V37.856H44.3948V42.08H41.9948V40H37.0188V42.08H34.6188ZM38.0908 37.872H40.4108V34.272H38.6508V35.024C38.6508 35.536 38.6028 36.048 38.5068 36.56C38.4108 37.072 38.2721 37.5093 38.0908 37.872ZM45.5694 40V32.128H48.1294V36.384L51.3614 32.128H53.6974V40H51.1374V35.728L47.9054 40H45.5694ZM60.5123 40V37.552C60.2349 37.648 59.9683 37.7173 59.7123 37.76C59.4563 37.8027 59.2056 37.824 58.9603 37.824C56.5176 37.824 55.2963 36.624 55.2963 34.224V32.128H58.1443V33.968C58.1443 34.5333 58.2456 34.9387 58.4483 35.184C58.6616 35.4293 59.0296 35.552 59.5523 35.552C59.7229 35.552 59.8829 35.536 60.0323 35.504C60.1923 35.472 60.3309 35.424 60.4483 35.36V32.128H63.2963V40H60.5123ZM69.514 40.176C68.554 40.176 67.722 40.0107 67.018 39.68C66.3247 39.3387 65.7913 38.8587 65.418 38.24C65.0447 37.6213 64.858 36.8907 64.858 36.048C64.858 35.248 65.034 34.5387 65.386 33.92C65.7487 33.3013 66.2393 32.8213 66.858 32.48C67.4873 32.128 68.202 31.952 69.002 31.952C69.7913 31.952 70.474 32.1173 71.05 32.448C71.6367 32.7787 72.0847 33.2533 72.394 33.872C72.714 34.48 72.874 35.1947 72.874 36.016V36.64H67.578C67.674 37.152 67.8873 37.52 68.218 37.744C68.5487 37.968 69.0073 38.08 69.594 38.08C69.9993 38.08 70.4207 38.0213 70.858 37.904C71.306 37.776 71.7007 37.5947 72.042 37.36L72.746 39.232C72.3407 39.52 71.8447 39.7493 71.258 39.92C70.6713 40.0907 70.09 40.176 69.514 40.176ZM69.13 33.792C68.7033 33.792 68.3513 33.92 68.074 34.176C67.8073 34.432 67.6367 34.8053 67.562 35.296H70.538C70.506 34.7947 70.3673 34.4213 70.122 34.176C69.8873 33.92 69.5567 33.792 69.13 33.792ZM78.4139 40.176C77.5285 40.176 76.7552 40.0107 76.0939 39.68C75.4432 39.3493 74.9365 38.8747 74.5739 38.256C74.2112 37.6373 74.0299 36.9013 74.0299 36.048C74.0299 35.1947 74.2112 34.464 74.5739 33.856C74.9365 33.2373 75.4432 32.768 76.0939 32.448C76.7552 32.1173 77.5285 31.952 78.4139 31.952C78.9365 31.952 79.4539 32.0267 79.9659 32.176C80.4885 32.3147 80.9152 32.512 81.2459 32.768L80.4939 34.72C80.2485 34.528 79.9605 34.3787 79.6299 34.272C79.3099 34.1547 79.0059 34.096 78.7179 34.096C78.1525 34.096 77.7152 34.2667 77.4059 34.608C77.0965 34.9493 76.9419 35.4293 76.9419 36.048C76.9419 36.6773 77.0965 37.168 77.4059 37.52C77.7152 37.8613 78.1525 38.032 78.7179 38.032C79.0059 38.032 79.3099 37.9787 79.6299 37.872C79.9605 37.7547 80.2485 37.6 80.4939 37.408L81.2459 39.36C80.9152 39.616 80.4885 39.8187 79.9659 39.968C79.4432 40.1067 78.9259 40.176 78.4139 40.176ZM82.4131 40V32.128H85.2611V34.912H86.0291L87.9491 32.128H90.9571L88.5411 35.664C88.7545 35.8027 88.9411 35.9733 89.1011 36.176C89.2718 36.368 89.4211 36.5813 89.5491 36.816L91.2451 40H88.2211L87.0211 37.76C86.8718 37.504 86.7225 37.328 86.5731 37.232C86.4238 37.136 86.2318 37.088 85.9971 37.088H85.2611V40H82.4131ZM94.7433 40.176C94.1353 40.176 93.5966 40.064 93.1273 39.84C92.6686 39.616 92.3059 39.312 92.0393 38.928C91.7833 38.5333 91.6553 38.0853 91.6553 37.584C91.6553 37.0187 91.8046 36.5707 92.1033 36.24C92.4019 35.8987 92.8819 35.6587 93.5433 35.52C94.2046 35.3707 95.0846 35.296 96.1833 35.296H96.7913V35.072C96.7913 34.688 96.6899 34.416 96.4873 34.256C96.2953 34.096 95.9593 34.016 95.4793 34.016C95.0739 34.016 94.6259 34.08 94.1353 34.208C93.6446 34.336 93.1646 34.5333 92.6953 34.8L91.9753 32.928C92.2419 32.736 92.5833 32.5653 92.9993 32.416C93.4153 32.2667 93.8526 32.1547 94.3113 32.08C94.7699 31.9947 95.2019 31.952 95.6073 31.952C96.9193 31.952 97.8899 32.2347 98.5193 32.8C99.1593 33.3653 99.4792 34.256 99.4792 35.472V40H96.8233V38.88C96.6846 39.2853 96.4339 39.6053 96.0713 39.84C95.7086 40.064 95.2659 40.176 94.7433 40.176ZM95.3833 38.32C95.7779 38.32 96.1086 38.192 96.3753 37.936C96.6526 37.68 96.7913 37.344 96.7913 36.928V36.64H96.1833C95.5539 36.64 95.0899 36.7093 94.7913 36.848C94.5033 36.976 94.3593 37.184 94.3593 37.472C94.3593 37.7173 94.4446 37.92 94.6153 38.08C94.7966 38.24 95.0526 38.32 95.3833 38.32ZM100.662 40L101.766 38.064C102.065 37.5413 102.46 37.184 102.95 36.992C101.681 36.7253 101.046 35.952 101.046 34.672C101.046 33.872 101.324 33.248 101.878 32.8C102.433 32.352 103.233 32.128 104.278 32.128H108.838V40H106.23V37.616H105.75C105.569 37.616 105.398 37.6747 105.238 37.792C105.078 37.9093 104.94 38.064 104.822 38.256L103.846 40H100.662ZM104.902 35.824H106.23V33.92H104.902C104.508 33.92 104.209 34.0053 104.006 34.176C103.804 34.336 103.702 34.5653 103.702 34.864C103.702 35.1627 103.804 35.3973 104.006 35.568C104.209 35.7387 104.508 35.824 104.902 35.824ZM115.335 40V32.128H118.183V34.912H118.951L120.871 32.128H123.879L121.463 35.664C121.676 35.8027 121.863 35.9733 122.023 36.176C122.194 36.368 122.343 36.5813 122.471 36.816L124.167 40H121.143L119.943 37.76C119.794 37.504 119.644 37.328 119.495 37.232C119.346 37.136 119.154 37.088 118.919 37.088H118.183V40H115.335ZM128.913 40.176C128.038 40.176 127.276 40.0107 126.625 39.68C125.974 39.3493 125.468 38.8747 125.105 38.256C124.742 37.6373 124.561 36.9067 124.561 36.064C124.561 35.2107 124.742 34.48 125.105 33.872C125.468 33.2533 125.974 32.7787 126.625 32.448C127.276 32.1173 128.038 31.952 128.913 31.952C129.788 31.952 130.55 32.1173 131.201 32.448C131.852 32.7787 132.353 33.2533 132.705 33.872C133.068 34.48 133.249 35.2107 133.249 36.064C133.249 36.9067 133.068 37.6373 132.705 38.256C132.353 38.8747 131.852 39.3493 131.201 39.68C130.55 40.0107 129.788 40.176 128.913 40.176ZM128.913 38.08C129.34 38.08 129.692 37.92 129.969 37.6C130.246 37.28 130.385 36.768 130.385 36.064C130.385 35.3493 130.246 34.8373 129.969 34.528C129.692 34.208 129.34 34.048 128.913 34.048C128.476 34.048 128.118 34.208 127.841 34.528C127.564 34.8373 127.425 35.3493 127.425 36.064C127.425 36.768 127.564 37.28 127.841 37.6C128.118 37.92 128.476 38.08 128.913 38.08ZM134.819 40V32.128H137.155L139.603 36.048L142.035 32.128H144.355V40H141.859V36.08L140.227 38.704H138.947L137.315 36.08V40H134.819ZM146.273 40V32.128H154.433V40H151.585V34.304H149.121V40H146.273ZM159.103 40.176C158.495 40.176 157.956 40.064 157.487 39.84C157.028 39.616 156.665 39.312 156.399 38.928C156.143 38.5333 156.015 38.0853 156.015 37.584C156.015 37.0187 156.164 36.5707 156.463 36.24C156.761 35.8987 157.241 35.6587 157.903 35.52C158.564 35.3707 159.444 35.296 160.543 35.296H161.151V35.072C161.151 34.688 161.049 34.416 160.847 34.256C160.655 34.096 160.319 34.016 159.839 34.016C159.433 34.016 158.985 34.08 158.495 34.208C158.004 34.336 157.524 34.5333 157.055 34.8L156.335 32.928C156.601 32.736 156.943 32.5653 157.359 32.416C157.775 32.2667 158.212 32.1547 158.671 32.08C159.129 31.9947 159.561 31.952 159.967 31.952C161.279 31.952 162.249 32.2347 162.879 32.8C163.519 33.3653 163.839 34.256 163.839 35.472V40H161.183V38.88C161.044 39.2853 160.793 39.6053 160.431 39.84C160.068 40.064 159.625 40.176 159.103 40.176ZM159.743 38.32C160.137 38.32 160.468 38.192 160.735 37.936C161.012 37.68 161.151 37.344 161.151 36.928V36.64H160.543C159.913 36.64 159.449 36.7093 159.151 36.848C158.863 36.976 158.719 37.184 158.719 37.472C158.719 37.7173 158.804 37.92 158.975 38.08C159.156 38.24 159.412 38.32 159.743 38.32ZM165.726 40V32.128H168.574V34.896H171.086V32.128H173.934V40H171.086V37.088H168.574V40H165.726ZM175.851 40V32.128H178.411V36.384L181.643 32.128H183.979V40H181.419V35.728L178.187 40H175.851ZM185.194 40L186.298 38.064C186.596 37.5413 186.991 37.184 187.482 36.992C186.212 36.7253 185.578 35.952 185.578 34.672C185.578 33.872 185.855 33.248 186.41 32.8C186.964 32.352 187.764 32.128 188.81 32.128H193.37V40H190.762V37.616H190.282C190.1 37.616 189.93 37.6747 189.77 37.792C189.61 37.9093 189.471 38.064 189.354 38.256L188.378 40H185.194ZM189.434 35.824H190.762V33.92H189.434C189.039 33.92 188.74 34.0053 188.538 34.176C188.335 34.336 188.234 34.5653 188.234 34.864C188.234 35.1627 188.335 35.3973 188.538 35.568C188.74 35.7387 189.039 35.824 189.434 35.824Z" fill="white"/>
</svg>
